<svg width="1175" height="233" viewBox="0 0 1175 233" fill="none" xmlns="http://www.w3.org/2000/svg">
<path d="M273.8 194V54H299.4V153.4L374.6 54H398.8V194H373.2V94.8L298 194H273.8ZM435.253 194V87.2H460.253V130.6H514.053V87.2H539.053V194H514.053V151.8H460.253V194H435.253ZM640.358 196C640.224 196 639.624 196 638.558 196C637.624 196 636.691 196 635.758 196C634.958 196 634.424 196 634.158 196C611.624 195.733 594.158 190.867 581.758 181.4C569.358 171.8 563.158 158.133 563.158 140.4C563.158 122.8 569.358 109.333 581.758 100C594.158 90.6667 611.824 85.8667 634.758 85.6C635.024 85.6 635.558 85.6 636.358 85.6C637.291 85.6 638.158 85.6 638.958 85.6C639.891 85.6 640.424 85.6 640.558 85.6C663.624 85.6 681.558 90.3333 694.358 99.8C707.291 109.133 713.758 122.667 713.758 140.4C713.758 158.267 707.291 172 694.358 181.6C681.558 191.2 663.558 196 640.358 196ZM639.558 175.2C650.891 175.2 660.224 173.933 667.558 171.4C674.891 168.733 680.358 164.867 683.958 159.8C687.558 154.6 689.358 148.133 689.358 140.4C689.358 132.8 687.558 126.533 683.958 121.6C680.358 116.533 674.891 112.8 667.558 110.4C660.224 107.867 650.891 106.6 639.558 106.6C639.291 106.6 638.624 106.6 637.558 106.6C636.624 106.6 636.024 106.6 635.758 106.6C624.691 106.6 615.624 107.933 608.558 110.6C601.491 113.133 596.224 116.867 592.758 121.8C589.424 126.733 587.758 132.933 587.758 140.4C587.758 148 589.424 154.333 592.758 159.4C596.224 164.467 601.491 168.333 608.558 171C615.758 173.667 624.824 175.067 635.758 175.2C636.024 175.2 636.624 175.2 637.558 175.2C638.624 175.2 639.291 175.2 639.558 175.2ZM626.558 232.8V45.6H650.158V232.8H626.558ZM785.588 195.4C774.654 195.4 764.921 193.067 756.388 188.4C747.854 183.6 741.121 177.067 736.188 168.8C731.254 160.533 728.788 151.133 728.788 140.6C728.788 129.933 731.254 120.533 736.188 112.4C741.121 104.133 747.854 97.6667 756.388 93C764.921 88.3333 774.654 86 785.588 86C796.654 86 806.454 88.3333 814.988 93C823.654 97.6667 830.388 104.067 835.188 112.2C840.121 120.333 842.588 129.8 842.588 140.6C842.588 151.133 840.121 160.533 835.188 168.8C830.388 177.067 823.654 183.6 814.988 188.4C806.454 193.067 796.654 195.4 785.588 195.4ZM785.588 174C791.721 174 797.188 172.667 801.988 170C806.788 167.333 810.521 163.467 813.188 158.4C815.988 153.333 817.388 147.4 817.388 140.6C817.388 133.667 815.988 127.733 813.188 122.8C810.521 117.733 806.788 113.867 801.988 111.2C797.188 108.533 791.788 107.2 785.788 107.2C779.654 107.2 774.188 108.533 769.388 111.2C764.721 113.867 760.988 117.733 758.188 122.8C755.388 127.733 753.988 133.667 753.988 140.6C753.988 147.4 755.388 153.333 758.188 158.4C760.988 163.467 764.721 167.333 769.388 170C774.188 172.667 779.588 174 785.588 174ZM930.717 194V172.4L929.317 167.8V130C929.317 122.667 927.117 117 922.717 113C918.317 108.867 911.651 106.8 902.717 106.8C896.717 106.8 890.784 107.733 884.917 109.6C879.184 111.467 874.317 114.067 870.317 117.4L860.517 99.2C866.251 94.8 873.051 91.5333 880.917 89.4C888.917 87.1333 897.184 86 905.717 86C921.184 86 933.117 89.7333 941.517 97.2C950.051 104.533 954.317 115.933 954.317 131.4V194H930.717ZM897.117 195.4C889.117 195.4 882.117 194.067 876.117 191.4C870.117 188.6 865.451 184.8 862.117 180C858.917 175.067 857.317 169.533 857.317 163.4C857.317 157.4 858.717 152 861.517 147.2C864.451 142.4 869.184 138.6 875.717 135.8C882.251 133 890.917 131.6 901.717 131.6H932.717V148.2H903.517C894.984 148.2 889.251 149.6 886.317 152.4C883.384 155.067 881.917 158.4 881.917 162.4C881.917 166.933 883.717 170.533 887.317 173.2C890.917 175.867 895.917 177.2 902.317 177.2C908.451 177.2 913.917 175.8 918.717 173C923.651 170.2 927.184 166.067 929.317 160.6L933.517 175.6C931.117 181.867 926.784 186.733 920.517 190.2C914.384 193.667 906.584 195.4 897.117 195.4ZM985.253 194V87.2H1011.45L1054.45 163H1044.05L1089.25 87.2H1112.65L1112.85 194H1090.25V114L1094.25 116.6L1054.25 182.8H1043.45L1003.25 114.8L1008.05 113.6V194H985.253Z" fill="white"/>
<rect y="28" width="209" height="151" rx="30" fill="white"/>
<path d="M70 167C70 155.954 78.9543 147 90 147H119C130.046 147 139 155.954 139 167V199C139 210.046 130.046 219 119 219H90C78.9543 219 70 210.046 70 199V167Z" fill="white"/>
<rect y="208" width="209" height="23" rx="11.5" fill="white"/>
<circle cx="104.5" cy="163.5" r="7.5" fill="#4D62E2"/>
</svg>
